<?xml version="1.0" encoding="UTF-8"?>
<svg width="20px" height="20px" viewBox="0 0 20 20" version="1.1" xmlns="http://www.w3.org/2000/svg" xmlns:xlink="http://www.w3.org/1999/xlink">
    <!-- Generator: Sketch 47.1 (45422) - http://www.bohemiancoding.com/sketch -->
    <title>cancel</title>
    <desc>Created with Sketch.</desc>
    <defs></defs>
    <g id="Page-1" stroke="none" stroke-width="1" fill="none" fill-rule="evenodd">
        <g id="cancel" fill="#1D1D1B" fill-rule="nonzero">
            <path d="M9.04355639,9.58627377 L0.190710575,18.1295221 C-0.0552365327,18.3668681 -0.0552365327,18.7513866 0.190710575,18.9887326 C0.313527872,19.1075564 0.474784171,19.1666667 0.635727958,19.1666667 C0.796984257,19.1666667 0.957928044,19.1075564 1.08074534,18.9887326 L10.0001563,10.381247 L18.9195672,18.9887326 C19.042697,19.1075564 19.2036408,19.1666667 19.3645846,19.1666667 C19.5255283,19.1666667 19.6867846,19.1075564 19.8096019,18.9887326 C20.055549,18.7513866 20.055549,18.3668681 19.8096019,18.1295221 L10.9570686,9.58627377 L19.8155397,1.03699377 C20.0614868,0.799647803 20.0614868,0.415129248 19.8155397,0.177783285 C19.5695926,-0.059261095 19.1711395,-0.059261095 18.9255049,0.177783285 L10.0004688,8.79130051 L1.0744951,0.178084868 C0.82854799,-0.0589595118 0.430407438,-0.0589595118 0.18446033,0.178084868 C-0.0614867768,0.415430831 -0.0614867768,0.799949386 0.18446033,1.03729535 L9.04355639,9.58627377 Z"></path>
        </g>
    </g>
</svg>